<svg version="1.1" xmlns="http://www.w3.org/2000/svg" viewBox="0 0 130 130">
    <rect fill="none"/>
    <g>
        <path fill="#4D4D4D" d="M110.815,19.524l10.941-0.703c3.396-0.215,5.97-3.139,5.749-6.526c-0.215-3.393-3.175-5.942-6.526-5.75
            L94.593,8.229c-3.374,0.221-5.932,3.106-5.755,6.472l1.422,26.39c0.177,3.283,2.895,5.821,6.141,5.821l0.337-0.005
            c3.396-0.188,5.997-3.087,5.81-6.477l-0.667-12.402c9.415,9.588,14.822,22.471,14.822,36.313c0,20.374-12,38.961-30.571,47.367
            c-3.098,1.395-4.476,5.038-3.07,8.136c1.025,2.276,3.27,3.616,5.606,3.616c0.849,0,1.714-0.182,2.53-0.551
            C114.167,112.522,129,89.537,129,64.34C129,47.268,122.38,31.362,110.815,19.524z"/>
        <path fill="#4D4D4D" d="M46.939,10.153c-1.39-3.104-5.055-4.468-8.137-3.07C15.845,17.471,1,40.459,1,65.652
            c0,17.077,6.62,32.979,18.196,44.82l-10.947,0.694c-3.401,0.221-5.97,3.147-5.75,6.537c0.199,3.252,2.911,5.761,6.13,5.761
            l0.402-0.017l26.382-1.687c3.368-0.21,5.937-3.104,5.749-6.472L39.74,88.897c-0.182-3.385-3.032-5.932-6.477-5.811
            c-3.385,0.188-5.986,3.087-5.811,6.478l0.667,12.402c-9.409-9.592-14.816-22.474-14.816-36.314c0-20.372,12-38.962,30.576-47.363
            C46.973,16.895,48.345,13.251,46.939,10.153z"/>
    </g>
</svg>
