<svg version="1.1" xmlns="http://www.w3.org/2000/svg" viewBox="0 0 130 130">
    <rect fill="none"/>
    <g>
        <path fill="#4D4D4D" d="M118.034,85.419c14.104-2.87,9.198-15.204,4.677-17.209c-3.614-1.595-7.795-1.476-4.918-2.607
            c2.223-0.884,7.21-2.354,7.21-7.711c0-2.45-0.785-4-1.841-4.982c-2.01-1.887-5.054-2.031-5.759-2.031c0,0-13.646,0-19.896,0
            c-1.237,0-3.111-1.016-3.34-2.219c-0.705-3.844-1.431-8.31,2.266-15.614c1.341-2.662,1.417-8.74-0.345-15.324
            c-1.411-5.381-4.025-10.936-7.969-14.97c-0.785-0.595-6.141-4.393-9.918,1.5v15.783c0,0.148-0.007,0.282-0.04,0.406
            c-0.107,1.085-0.759,6.231-2.776,9.732c-1.235,2.144-6.826,11.132-11.743,18.654c-3.151,4.812-6.048,9.025-7.399,10.515
            c-2.667,2.937-7.757,3.294-10.698,3.199l-0.005,55.526c0.915-0.463,6.529,4.99,20.393,5.2c18.819,0.258,31.036-2.259,41.223-4.321
            c1.711-0.358,5.1-1.7,6.818-2.975c1.144-0.84,2.521-1.905,3.239-3.133c0.686-1.164,1.102-2.492,1.102-3.935
            c0-6.326-4.582-5.858-4.286-7.147c0.208-0.949,0.814-0.888,1.722-1.246c10.695-4.13,5.744-12.796,2.652-13.57
            C116.549,86.474,116.778,85.677,118.034,85.419z"/>
        <path fill="#4D4D4D" d="M38.35,54.629c-6.863,0-26.24,0-26.24,0s-10.089-1.075-9.438,9.832c0.638,10.897,3.646,53.425,3.646,53.425
            s0,11.112,11.147,11.112c11.158,0,21.949,0,21.949,0s4.09,0.209,4.09-5.134v-5.128l0,0V61.678
            C43.504,61.678,45.219,54.629,38.35,54.629z"/>
    </g>
</svg>
