<svg xmlns="http://www.w3.org/2000/svg" width="113.0810775756836" height="75.43243408203125">
 <g id="hero">
  <rect id="backgroundrect" width="100%" height="100%" x="0" y="0" fill="none" stroke="none" class="" style=""/>

  <g class="currentLayer" style="">
   <title>Layer 1</title>
   <g xmlns="http://www.w3.org/2000/svg" id="banner" viewBox="0 0 32 32" class="">
    <path d="M29.999999523162842,5.332000017166138 h-6.863 l-6.267,-5.04 c-0.22600000000000003,-0.18200000000000002 -0.517,-0.29200000000000004 -0.8330000000000001,-0.29200000000000004 s-0.6070000000000001,0.11000000000000001 -0.8360000000000001,0.29400000000000004 l0.003000000000000001,-0.0020000000000000005 l-6.337,5.04 h-6.867 c-1.105,0 -2,0.8950000000000001 -2,2 v0 v14 c0,1.105 0.8950000000000001,2 2,2 v0 h28 c1.105,0 2,-0.8950000000000001 2,-2 v0 v-14 c0,-1.105 -0.8950000000000001,-2 -2,-2 v0 zM16.029999523162843,3.0390000171661375 l2.85,2.293 h-5.73 zM29.33299952316284,20.665000017166136 h-26.667 v-12.667 h26.667 zM23.999999523162842,13.665000017166138 h-16 c-0.7360000000000001,0 -1.3330000000000002,-0.5970000000000001 -1.3330000000000002,-1.3330000000000002 s0.5970000000000001,-1.3330000000000002 1.3330000000000002,-1.3330000000000002 v0 h16 c0.7360000000000001,0 1.3330000000000002,0.5970000000000001 1.3330000000000002,1.3330000000000002 s-0.5970000000000001,1.3330000000000002 -1.3330000000000002,1.3330000000000002 v0 zM20.666999523162843,17.665000017166136 h-9.333 c-0.7360000000000001,0 -1.3330000000000002,-0.5970000000000001 -1.3330000000000002,-1.3330000000000002 s0.5970000000000001,-1.3330000000000002 1.3330000000000002,-1.3330000000000002 v0 h9.333 c0.7360000000000001,0 1.3330000000000002,0.5970000000000001 1.3330000000000002,1.3330000000000002 s-0.5970000000000001,1.3330000000000002 -1.3330000000000002,1.3330000000000002 v0 z" id="svg_1"/>
   </g>
   <rect fill="#ffffff" stroke="#ffffff" stroke-dashoffset="" fill-rule="nonzero" id="svg_2" x="4" y="9" width="24" height="11" style="color: rgb(0, 0, 0);"/>
   <rect fill="#ffffff" stroke="#ffffff" stroke-dashoffset="" fill-rule="nonzero" id="svg_4" x="4" y="9" width="23" height="10" style="color: rgb(0, 0, 0);" class=""/>
  </g>
 </g>
</svg>
