<svg width="580" height="400" xmlns="http://www.w3.org/2000/svg">
 <g>
  <title>background</title>
  <rect fill="#fff" id="canvas_background" height="402" width="582" y="-1" x="-1"/>
  <g display="none" overflow="visible" y="0" x="0" height="100%" width="100%" id="canvasGrid">
   <rect fill="url(#gridpattern)" stroke-width="0" y="0" x="0" height="100%" width="100%"/>
  </g>
 </g>
 <g>
  <title>Layer 1</title>
  <g id="svg_5">
   <path id="svg_4" d="m203.47746,315.19277l172.77904,0l0,-43.17461l-57.60645,0l0,-201.56211l-51.2774,0l-66.59612,61.63769l34.62837,35.999q18.90652,-16.64903 24.75183,-25.6387l0.88687,1l0,128.56412c-19.20215,0 -38.4043,0 -57.60645,0l0,43.17461l0.04031,0zm230.38549,-115.17259q0,31.484 -9.4331,63.89519t-26.76745,60.30738t-45.67398,45.4321t-62.08113,17.5359t-62.08113,-17.5359t-45.67397,-45.4321t-26.76745,-60.30738t-9.43311,-63.89519t9.43311,-63.89519t26.76745,-60.30739t45.67397,-45.4321t62.08113,-17.5359t62.08113,17.5359t45.67398,45.4321t26.76745,60.30739t9.4331,63.89519zm230.34519,115.17259l0,-230.34519q-47.6896,0 -81.4311,-33.74149t-33.74149,-81.4311l-518.29682,0q0,47.6896 -33.7415,81.4311t-81.43109,33.74149l0,230.34519q47.68959,0 81.43109,33.74149t33.7415,81.4311l518.29682,0q0,-47.6896 33.74149,-81.4311t81.4311,-33.74149zm57.60645,-374.34116l0,518.29682q0,11.6906 -8.54624,20.23683t-20.23683,8.54624l-806.24845,0q-11.6906,0 -20.23684,-8.54624t-8.54623,-20.23683l0,-518.29682q0,-11.6906 8.54623,-20.23683t20.23684,-8.54624l806.24845,0q11.6906,0 20.23683,8.54624t8.54624,20.23683z" fill="#444444"/>
  </g>
  <rect stroke="#ffffff" id="svg_8" height="391.000007" width="415.999991" y="3" x="60" stroke-opacity="0" stroke-width="NaN" fill="#ffffff"/>
  <text stroke="#ffffff" transform="matrix(9.250268584036007,0,0,9.516383155457788,-959.8507339865774,-1009.0642768527396) " xml:space="preserve" text-anchor="start" font-family="Helvetica, Arial, sans-serif" font-size="24" id="svg_9" y="135.316444" x="109.107255" stroke-opacity="0" stroke-width="0" fill="#000000">Hero</text>
 </g>
</svg>
