<?xml version="1.0" ?><svg height="22px" version="1.1" viewBox="0 0 22 22" width="22px" xmlns="http://www.w3.org/2000/svg" xmlns:sketch="http://www.bohemiancoding.com/sketch/ns" xmlns:xlink="http://www.w3.org/1999/xlink"><title/><defs><path d="M0,11 C0,4.92486745 4.92486745,0 11,0 C17.0751325,0 22,4.92486745 22,11 C22,17.0751325 17.0751325,22 11,22 C4.92486745,22 0,17.0751325 0,11 L0,11 Z M21,11 C21,5.47715225 16.5228478,1 11,1 C5.47715225,1 1,5.47715225 1,11 C1,16.5228478 5.47715225,21 11,21 C16.5228478,21 21,16.5228478 21,11 L21,11 Z M16.5,11 L13.5,7 L12.5,7 L15.25,10.5015625 L5.5,10.5015626 L5.5,11.5 L15.25,11.5 L12.5,15 L13.5,15 L16.5,11 L16.5,11 Z" id="path-1"/></defs><g fill="none" fill-rule="evenodd" id="miu" stroke="none" stroke-width="1"><g id="circle_arrow-forward_next_outline_stroke"><use fill="#ebebeb" fill-rule="evenodd" xlink:href="#path-1"/><use fill="none" xlink:href="#path-1"/></g></g></svg>
