<?xml version="1.0" encoding="utf-8"?>
<!-- Generator: Adobe Illustrator 20.1.0, SVG Export Plug-In . SVG Version: 6.00 Build 0)  -->
<svg version="1.1" id="Layer_3" xmlns="http://www.w3.org/2000/svg" xmlns:xlink="http://www.w3.org/1999/xlink" x="0px" y="0px"
	 viewBox="0 0 20 20" style="enable-background:new 0 0 20 20;" xml:space="preserve" width="20" height="20">
<style type="text/css">
	.st0{fill:#444444;}
</style>
<g>
	<g>
		<path class="st0" d="M8.9,20H1.8c-1,0-1.8-0.8-1.8-1.8V1.8C0,0.8,0.8,0,1.8,0h8.2c0.7,0,1.3,0.3,1.7,0.7l4.7,4.5
			c0.5,0.5,0.8,1.2,0.8,1.9v1.1h-1.5V7.2c0,0,0,0,0,0h-5.1c-0.4,0-0.8-0.3-0.8-0.8V1.5H1.8c-0.1,0-0.2,0.1-0.2,0.2v16.5
			c0,0.1,0.1,0.2,0.2,0.2h7.1V20z M11.4,5.6h3.3l-3.3-3.2V5.6z"/>
	</g>
	<path class="st0" d="M13.9,14.5c1.2,0,2.3-1,2.3-2.3c0-1.2-1-2.3-2.3-2.3c-1.2,0-2.3,1-2.3,2.3C11.6,13.5,12.6,14.5,13.9,14.5z
		 M17.2,19.4l0-0.1c-0.2-0.8-0.7-2.6-1.1-3.1c-0.5-0.9-1.9-0.8-1.9-0.8h-1.1c0,0-1,0-1.6,0.8c-0.3,0.4-0.8,2.2-1,3
		c0,0.1,0,0.2,0,0.2C10.4,19.7,10.6,20,11,20h5.8C17.1,20,17.3,19.7,17.2,19.4z"/>
</g>
</svg>
