<svg xmlns="http://www.w3.org/2000/svg" viewBox="0 0 72 72"><path d="M60.5 72h-49c-.6 0-1-.4-1-1V25c0-.6.4-1 1-1h49c.6 0 1 .4 1 1v46c0 .6-.4 1-1 1zm-48-2h47V26h-47v44z"/><path d="M47.5 71h-2V24.7l9.1-15.9 6.8 15.8-1.8.8-5.2-12.2-6.9 12.1M11.5 26c-.2 0-.3 0-.5-.1-.5-.3-.6-.9-.4-1.4l8-14c.3-.5.9-.6 1.4-.4.5.3.6.9.4 1.4l-8 14c-.2.3-.6.5-.9.5z"/><path d="M59 25.9l-10-6 1-1.7 10 6-1 1.7zM55.5 12h-2V4.3c0-2.3-2.9-2.3-3-2.3h-27c-2.8 0-3 1.9-3 2.3v5.6h30v2h-32V4.3c0-1.5 1-4.3 5-4.3h27c1.7 0 5 .9 5 4.3V12z"/></svg>
