<svg id="Layer_1" xmlns="http://www.w3.org/2000/svg" xmlns:xlink="http://www.w3.org/1999/xlink" viewBox="0 0 72 72"><style>.st0{clip-path:url(#SVGID_2_);}</style><defs><path id="SVGID_1_" d="M22 0h28v72H22z"/></defs><clipPath id="SVGID_2_"><use xlink:href="#SVGID_1_" overflow="visible"/></clipPath><path d="M35 54s-.1 0 0 0c-12.9-1.1-13-12.9-13-13 0-.3.1-.6.4-.8.2-.2.5-.3.8-.2.1 0 12.8 2.3 12.8 13 0 .3-.1.5-.3.7-.2.2-.5.3-.7.3zM24.1 42.3c.4 2.6 2.1 8.4 9.8 9.6-.6-6.4-7-8.9-9.8-9.6zM36 27c-3.2 0-5-5.4-5-10.6 0-5.6 2-9.4 5-9.4s5 3.8 5 9.4c0 5.2-1.8 10.6-5 10.6zm0-18c-1.5 0-3 2.6-3 7.4 0 5.2 1.8 8.6 3 8.6s3-3.3 3-8.6c0-4.8-1.5-7.4-3-7.4zM37 54c-.2 0-.5-.1-.7-.3-.2-.2-.3-.4-.3-.7 0-10.7 12.7-13 12.8-13 .3 0 .6 0 .8.2.2.2.4.5.4.8 0 .1-.1 11.9-13 13 .1 0 0 0 0 0zm10.9-11.7c-2.8.8-9.2 3.2-9.8 9.6 7.6-1.2 9.4-7 9.8-9.6z" class="st0"/><path d="M35 44s-.1 0 0 0c-12.9-1.1-13-12.9-13-13 0-.3.1-.6.4-.8s.5-.3.8-.2c.1 0 12.8 2.3 12.8 13 0 .3-.1.5-.3.7-.2.2-.5.3-.7.3zM24.1 32.3c.4 2.6 2.1 8.4 9.8 9.6-.6-6.4-7-8.9-9.8-9.6zM37 44c-.2 0-.5-.1-.7-.3-.2-.2-.3-.4-.3-.7 0-10.7 12.7-13 12.8-13 .3 0 .6 0 .8.2.2.2.4.5.4.8 0 .1-.1 11.9-13 13 .1 0 0 0 0 0zm10.9-11.7c-2.8.8-9.2 3.2-9.8 9.6 7.6-1.2 9.4-7 9.8-9.6z" class="st0"/><path d="M35 34s-.1 0 0 0c-12.9-1.1-13-12.9-13-13 0-.3.1-.6.4-.8s.5-.3.8-.2c.1 0 12.8 2.3 12.8 13 0 .3-.1.5-.3.7-.2.2-.5.3-.7.3zM24.1 22.3c.4 2.6 2.1 8.4 9.8 9.6-.6-6.4-7-8.9-9.8-9.6zM37 34c-.2 0-.5-.1-.7-.3-.2-.2-.3-.4-.3-.7 0-10.7 12.7-13 12.8-13 .3 0 .6 0 .8.2.2.2.4.5.4.8 0 .1-.1 11.9-13 13 .1 0 0 0 0 0zm10.9-11.7c-2.8.8-9.2 3.2-9.8 9.6 7.6-1.2 9.4-7 9.8-9.6z" class="st0"/><path d="M36 72c-.6 0-1-.4-1-1V26c0-.6.4-1 1-1s1 .4 1 1v45c0 .6-.4 1-1 1zm13-50c-.6 0-1-.4-1-1V10c0-.6.4-1 1-1s1 .4 1 1v11c0 .6-.4 1-1 1zm-26 0c-.6 0-1-.4-1-1V10c0-.6.4-1 1-1s1 .4 1 1v11c0 .6-.4 1-1 1zM36 9c-.6 0-1-.4-1-1V1c0-.6.4-1 1-1s1 .4 1 1v7c0 .6-.4 1-1 1z" class="st0"/></svg>
