<svg xmlns="http://www.w3.org/2000/svg" viewBox="0 0 72 72"><path d="M19.2 64.9c-4 0-7.8-.5-8.9-1.7-.2-.2-.3-.4-.4-.6-2-.1-3.6-.6-4.4-1-2.6-1.3-6.6-6-4.5-15.1 2-9.4 8.2-12.6 8.4-12.7.1 0 10.8-5 14.5-11.6 1.2-1.7 1.5-2.7 1.8-3.6.9-2.4 1.5-3.2 10.5-8.8 0 0 .1 0 .1-.1 8.8-3.9 14.3-2.4 15-2.2 2.7.6 4.5 1.7 5.4 3.3 1.1 2 .3 4.1.3 4.2 0 0-.8 2.4-1.8 5.3-.3 4.1-1 6.5-3.7 9.9-1.9 2.4-4.1 4-6.4 5.4 3.8 0 9.6.5 14.1 3.1 2.1 1.4 5.9 3.6 8 4.9 1.6.9 2.8 2.3 3.5 4 1.1 2.6.9 5.5-.5 7.9-.6 1-1.4 1.8-2.3 2.3-1.9 1-3.4 2-4.7 2.8-1.2.7-2.2 1.3-3 1.8-2.1 1.1-11.3 3.2-16.8 1.1-8-1.8-14.5-.3-15.3-.1-1.5 1-5.3 1.5-8.9 1.5zm-5.6-2.4c3.6.6 11.1.7 13.8-.7 1.7-.7 8.9-1.8 16.6-.1h.2c4.6 1.8 13.2.1 15.2-1 .8-.4 1.8-1 2.9-1.7 1.4-.8 2.9-1.8 4.8-2.9.6-.3 1.2-.9 1.5-1.6 1.1-2 1.3-4.1.4-6.2-.5-1.3-1.5-2.4-2.7-3.1-2.1-1.2-6-3.5-8.1-4.9-6-3.4-15.1-2.8-16.6-2.7-2.3 1.5-4.5 3-6.1 5.4-1.5 2.3-1.6 2.8-1.8 3.3-.2 1-.4 1.7-5.3 7.8-4.3 5.9-10.1 7.9-14.8 8.4zm-3.3-26.9c-.3.2-5.6 3.1-7.5 11.3C1 54.8 4.2 58.7 6.3 59.8c1.4.7 12.9 3.1 20.8-6.7 4.6-5.8 4.8-6.4 4.9-7 .2-.8.4-1.5 2-3.9 1.8-2.7 4.3-4.5 6.8-6.1h.1l1.5-.9c2.7-1.6 5.5-3.3 7.7-6 2.5-3.1 3-5.1 3.3-8.9 0-.1 0-.2.1-.3 1.1-2.9 1.9-5.4 1.9-5.5 0-.1.5-1.4-.2-2.5-.6-1.1-2-1.9-4.1-2.3H51S45.9 8 37.4 11.8c-8.8 5.4-9 6-9.6 7.8-.3.9-.7 2-2 3.9-4.1 6.8-14.7 11.7-15.5 12.1zm49.6 21.1h-4c-.6 0-1-.4-1-1s.4-1 1-1h4c.6 0 1 .4 1 1s-.5 1-1 1zm-12 0h-4c-.6 0-1-.4-1-1s.4-1 1-1h4c.6 0 1 .4 1 1s-.5 1-1 1zm-11 0h-4c-.6 0-1-.4-1-1s.4-1 1-1h4c.6 0 1 .4 1 1s-.5 1-1 1zm-18-5c-.3 0-.5-.1-.7-.3-.4-.4-.4-1 0-1.4l3-3c.4-.4 1-.4 1.4 0s.4 1 0 1.4l-3 3c-.2.2-.5.3-.7.3zm-8-4c-.3 0-.5-.1-.7-.3-.4-.4-.4-1 0-1.4l3-3c.4-.4 1-.4 1.4 0s.4 1 0 1.4l-3 3c-.2.2-.5.3-.7.3zm46 0h-4c-.6 0-1-.4-1-1s.4-1 1-1h4c.6 0 1 .4 1 1s-.5 1-1 1zm-12 0h-4c-.6 0-1-.4-1-1s.4-1 1-1h4c.6 0 1 .4 1 1s-.5 1-1 1zm-18-4c-.3 0-.5-.1-.7-.3-.4-.4-.4-1 0-1.4l3-3c.4-.4 1-.4 1.4 0s.4 1 0 1.4l-3 3c-.2.2-.5.3-.7.3zm-7-5c-.3 0-.5-.1-.7-.3-.4-.4-.4-1 0-1.4l3-3c.4-.4 1-.4 1.4 0 .4.4.4 1 0 1.4l-3 3c-.2.2-.5.3-.7.3zm16-4c-.3 0-.5-.1-.7-.3-.4-.4-.4-1 0-1.4l3-3c.4-.4 1-.4 1.4 0 .4.4.4 1 0 1.4l-3 3c-.2.2-.5.3-.7.3zm-8-4c-.3 0-.5-.1-.7-.3-.4-.4-.4-1 0-1.4l3-3c.4-.4 1-.4 1.4 0s.4 1 0 1.4l-3 3c-.2.2-.5.3-.7.3zm16-4c-.3 0-.5-.1-.7-.3-.4-.4-.4-1 0-1.4l3-3c.4-.4 1-.4 1.4 0s.4 1 0 1.4l-3 3c-.2.2-.5.3-.7.3zm-8-4c-.3 0-.5-.1-.7-.3-.4-.4-.4-1 0-1.4l3-3c.4-.4 1-.4 1.4 0 .4.4.4 1 0 1.4l-3 3c-.2.2-.5.3-.7.3z"/></svg>
