<svg id="Layer_1" xmlns="http://www.w3.org/2000/svg" xmlns:xlink="http://www.w3.org/1999/xlink" viewBox="0 0 72 72"><style>.st0{clip-path:url(#SVGID_2_);}</style><defs><path id="SVGID_1_" d="M4 0h64v72H4z"/></defs><clipPath id="SVGID_2_"><use xlink:href="#SVGID_1_" overflow="visible"/></clipPath><path d="M13 27.6h2V72h-2z" class="st0"/><path d="M14.3 29.2c-5.8 0-10-6.4-10.2-6.7 0-.1-.1-.3-.1-.5V1c0-.6.4-1 1-1s1 .4 1 1v20.7c.8 1.1 4.2 5.5 8.3 5.5 2.7 0 5.2-1.9 7.7-5.5V1c0-.6.4-1 1-1s1 .4 1 1v21c0 .2-.1.4-.2.5-2.8 4.5-6 6.7-9.5 6.7zM14 22c-.6 0-1-.4-1-1V3c0-.6.4-1 1-1s1 .4 1 1v18c0 .6-.4 1-1 1zM38 27h2v45h-2zM67 72h-9c-.4 0-.8-.3-.9-.7-1-2.8 1-15.1 1.8-19.5-1.3-.3-3.3-1-5-3.1-2.8-3.5-3.4-9.2-1.8-17l3-10.1C61.1 5.5 66.1.4 66.4.2c.2-.2.6-.3 1-.1s.6.5.6.9v70c0 .6-.4 1-1 1zm-8.2-2H66V3.9c-1.9 2.8-5.3 8.4-9.1 18.5l-3 9.9c-1.5 7-1 12.3 1.4 15.2C57.3 50 60 50 60 50c.3 0 .6.1.8.4.2.2.3.5.2.8-1.1 5.9-2.5 15.7-2.2 18.8z" class="st0"/><path d="M39 28c-6.1 0-11-6.3-11-14S32.9 0 39 0s11 6.3 11 14-4.9 14-11 14zm0-26c-5 0-9 5.4-9 12s4 12 9 12 9-5.4 9-12-4-12-9-12z" class="st0"/></svg>
