<svg xmlns="http://www.w3.org/2000/svg" viewBox="0 0 72 72"><path fill="#d73046" d="M20.2 71.9c-4 0-9.1-.3-14.9-1.1-.4-.1-.8-.4-.8-.8-.1-.4.1-.8.5-1.1l19-11.7c4.1-2.5 7.6-6 10.2-10.1C38 41 39 37 40.5 29.7c0-.2.1-.4.1-.6.1-1 .5-3.5 1.1-5 1.1-3.3 4.5-8.6 14.4-7.2 10.6 1.9 10.1 9.3 9.9 12.8v.6c0 .6-.1 1.1-.2 1.6-4.4 23.8-25.6 35.3-32 38.3-1.1.5-2.2.8-3.3 1-1.8.3-5.3.7-10.3.7zM8.4 69.2c11.2 1.3 18.9.5 21.8.1 1-.1 1.9-.4 2.8-.8 6.2-2.9 26.6-14 30.8-36.8.1-.4.1-.8.1-1.3v-.6c.2-3.6.6-9.1-8.2-10.7-8-1.1-11.1 2.5-12.2 5.9-.5 1.4-.9 3.9-1 4.6 0 .2-.1.5-.1.7-1.5 7.5-2.5 11.6-6.7 18.2-2.7 4.3-6.5 8-10.8 10.7l-16.5 10z"/><path fill="#d73046" d="M45.5 20.1c.5-1.2-6.7-13 15.4-8.1 10.7 2.4 3.1 10.5 2.5 10-8.7-7.4-17.9-1.9-17.9-1.9z"/><path fill="#d73046" d="M63.5 23c-.4 0-.6-.2-.7-.3-8.1-6.8-16.7-1.8-16.8-1.7-.4.2-.8.2-1.2-.1-.3-.2-.4-.6-.3-1 0-.2-.1-.6-.2-.9-.4-1.7-1.3-4.9.8-7.1 2.4-2.4 7.6-2.7 16-.9 4.9 1.1 6.2 3.3 6.4 5 .5 3.1-2.2 6.1-3.3 6.7-.3.2-.5.3-.7.3zm-10.1-5.8c3.1 0 6.7.8 10.2 3.6.8-.7 2.2-2.7 2-4.4-.3-2-2.8-3-4.9-3.4-9.4-2.1-12.9-1-14.1.3-1.3 1.4-.7 3.7-.3 5.2v.2c1.5-.7 4-1.5 7.1-1.5zm-8.8 2.5z"/><g><path fill="#d73046" d="M58.1 11l-1.8-.8c1.7-3.9 2.4-7.7 1.8-8.1 0 0-.7-.3-3.2 1.6l-1.2-1.6C55.4.9 57.8-.6 59.3.6c2.2 1.7-.1 7.8-1.2 10.4z"/></g></svg>
